<svg xmlns="http://www.w3.org/2000/svg" version="1.1" viewBox="-5.0 -10.0 110.0 135.0">
 <path d="m50.863 57.418c-0.26172 0.17578-0.56641 0.26172-0.86719 0.26172-0.30078 0-0.60547-0.085938-0.86719-0.26172l-40.027-26.695v39.883c0 5.75 4.6758 10.426 10.426 10.426h60.945c5.75 0 10.426-4.6758 10.426-10.426v-39.883zm-10.66 1.5-17.965 14.777c-0.28906 0.23828-0.64062 0.35547-0.99219 0.35547-0.44922 0-0.89844-0.19531-1.207-0.57031-0.54687-0.66797-0.45312-1.6523 0.21484-2.1992l17.965-14.777c0.66406-0.54688 1.6484-0.45312 2.1992 0.21484 0.54688 0.66797 0.44922 1.6523-0.21484 2.1992zm39.758 14.562c-0.30859 0.375-0.75781 0.57031-1.207 0.57031-0.34766 0-0.69922-0.11719-0.99219-0.35547l-17.965-14.777c-0.66797-0.54688-0.76172-1.5312-0.21484-2.1992s1.5352-0.76172 2.1992-0.21484l17.965 14.777c0.66797 0.55078 0.76172 1.5352 0.21484 2.1992z"/>
 <path d="m90.645 27.137c-1.0352-4.6641-5.1992-8.168-10.172-8.168h-60.945c-4.9727 0-9.1367 3.5-10.172 8.168l40.645 27.105z"/>
<text x="0.0" y="117.5" font-size="5.0" font-weight="bold" font-family="Arbeit Regular, Helvetica, Arial-Unicode, Arial, Sans-serif" fill="#000000">Created by Akbar</text><text x="0.0" y="122.5" font-size="5.0" font-weight="bold" font-family="Arbeit Regular, Helvetica, Arial-Unicode, Arial, Sans-serif" fill="#000000">from Noun Project</text></svg>