<svg xmlns="http://www.w3.org/2000/svg" data-name="Layer 2" viewBox="0 0 100 125" x="0px" y="0px"><path d="M50,9C27.39,9,9,27.39,9,50s18.39,41,41,41,41-18.39,41-41S72.61,9,50,9Zm0,80c-21.5,0-39-17.5-39-39S28.5,11,50,11s39,17.5,39,39-17.5,39-39,39Z"/><path d="M70.62,24.67c-.02-.29-.16-.55-.39-.73-5.85-4.54-12.85-6.94-20.23-6.94-18.2,0-33,14.8-33,33,0,7.38,2.4,14.38,6.94,20.23,.18,.23,.44,.37,.73,.39,.02,0,.04,0,.06,0,.26,0,.52-.1,.71-.29L70.33,25.44c.2-.2,.31-.48,.29-.77ZM24.84,68.1c-3.82-5.31-5.84-11.54-5.84-18.1,0-17.09,13.91-31,31-31,6.55,0,12.79,2.02,18.1,5.84L24.84,68.1Z"/><path d="M75.33,29.38c-.29-.02-.57,.09-.77,.29L29.67,74.56c-.2,.2-.31,.48-.29,.77,.02,.29,.16,.55,.39,.73,5.85,4.54,12.85,6.94,20.23,6.94,18.2,0,33-14.8,33-33,0-7.38-2.4-14.38-6.94-20.23-.18-.23-.44-.37-.73-.39Zm-25.33,51.62c-6.55,0-12.79-2.02-18.1-5.84L75.16,31.9c3.82,5.31,5.84,11.54,5.84,18.1,0,17.09-13.91,31-31,31Z"/><text x="0" y="115" fill="#000000" font-size="5px" font-weight="bold" font-family="'Helvetica Neue', Helvetica, Arial-Unicode, Arial, Sans-serif">Created by Afqoh</text><text x="0" y="120" fill="#000000" font-size="5px" font-weight="bold" font-family="'Helvetica Neue', Helvetica, Arial-Unicode, Arial, Sans-serif">from the Noun Project</text></svg>