<svg xmlns="http://www.w3.org/2000/svg" xmlns:xlink="http://www.w3.org/1999/xlink" version="1.1" x="0px" y="0px" viewBox="0 0 100 125" style="enable-background:new 0 0 100 100;" xml:space="preserve"><g><path d="M27.23,41.62h37.89c0.8,0,1.46-0.65,1.46-1.46c0-0.81-0.65-1.46-1.46-1.46H27.23c-0.8,0-1.46,0.65-1.46,1.46   C25.77,40.97,26.42,41.62,27.23,41.62z"/><path d="M27.23,49.7h37.89c0.8,0,1.46-0.65,1.46-1.46c0-0.81-0.65-1.46-1.46-1.46H27.23c-0.8,0-1.46,0.65-1.46,1.46   C25.77,49.05,26.42,49.7,27.23,49.7z"/><path d="M27.23,57.79h37.89c0.8,0,1.46-0.65,1.46-1.46c0-0.81-0.65-1.46-1.46-1.46H27.23c-0.8,0-1.46,0.65-1.46,1.46   C25.77,57.13,26.42,57.79,27.23,57.79z"/><path d="M54.17,62.96H27.23c-0.8,0-1.46,0.65-1.46,1.46s0.65,1.46,1.46,1.46h26.94c0.8,0,1.46-0.65,1.46-1.46   S54.97,62.96,54.17,62.96z"/><path d="M50.53,71.04h-23.3c-0.8,0-1.46,0.65-1.46,1.46c0,0.81,0.65,1.46,1.46,1.46h23.3c0.8,0,1.46-0.65,1.46-1.46   C51.98,71.69,51.33,71.04,50.53,71.04z"/><path d="M76.26,64.16V29.96c0-0.03-0.02-0.06-0.02-0.09c-0.01-0.13-0.03-0.25-0.07-0.37c-0.02-0.05-0.03-0.09-0.05-0.14   c-0.07-0.15-0.16-0.3-0.28-0.43L57.41,10.51c-0.13-0.12-0.27-0.21-0.43-0.29c-0.04-0.02-0.09-0.03-0.13-0.05   c-0.12-0.04-0.25-0.07-0.38-0.08c-0.03,0-0.06-0.02-0.09-0.02H18.87c-1.53,0-2.78,1.25-2.78,2.78v65.83c0,1.53,1.25,2.78,2.78,2.78   h38.91c2.02,4.96,6.89,8.46,12.56,8.46c7.48,0,13.57-6.09,13.57-13.57C83.91,70.99,80.78,66.37,76.26,64.16z M57.83,15.05   l6.73,6.72l6.73,6.72H57.83V15.05z M19.01,78.55V12.99h35.91v15.65c0,1.53,1.25,2.78,2.78,2.78h15.65v31.72   c-0.97-0.22-1.97-0.35-3-0.35c-7.48,0-13.57,6.09-13.57,13.57c0,0.75,0.08,1.48,0.19,2.19H19.01z M70.34,87.01   c-5.87,0-10.65-4.78-10.65-10.65c0-5.87,4.78-10.65,10.65-10.65c5.87,0,10.65,4.78,10.65,10.65   C80.99,82.23,76.21,87.01,70.34,87.01z"/><path d="M76.71,69.98c-0.57-0.57-1.49-0.57-2.06,0l-4.31,4.31l-4.31-4.31c-0.57-0.57-1.49-0.57-2.06,0c-0.57,0.57-0.57,1.49,0,2.06   l4.31,4.31l-4.31,4.31c-0.57,0.57-0.57,1.49,0,2.06c0.28,0.28,0.66,0.43,1.03,0.43c0.37,0,0.75-0.14,1.03-0.43l4.31-4.31l4.31,4.31   c0.28,0.28,0.66,0.43,1.03,0.43c0.37,0,0.75-0.14,1.03-0.43c0.57-0.57,0.57-1.49,0-2.06l-4.31-4.31l4.31-4.31   C77.28,71.47,77.28,70.55,76.71,69.98z"/></g><text x="0" y="115" fill="#000000" font-size="5px" font-weight="bold" font-family="'Helvetica Neue', Helvetica, Arial-Unicode, Arial, Sans-serif">Created by Charif Deffa</text><text x="0" y="120" fill="#000000" font-size="5px" font-weight="bold" font-family="'Helvetica Neue', Helvetica, Arial-Unicode, Arial, Sans-serif">from the Noun Project</text></svg>