<svg xmlns="http://www.w3.org/2000/svg" data-name="Layer 1" viewBox="0 0 100 125" x="0px" y="0px"><path d="M74.15,12.11H25.85a2,2,0,0,0-2,2V18a2,2,0,0,0,2,2h3.92A21.81,21.81,0,0,0,40.21,47.79a.85.85,0,0,1,.48.78v2.86a.86.86,0,0,1-.48.77A21.91,21.91,0,0,0,28.26,74a21.36,21.36,0,0,0,1.5,6H25.85a2,2,0,0,0-2,2V85.9a2,2,0,0,0,2,2h48.3a2,2,0,0,0,2-2V82a2,2,0,0,0-2-2H70.23A21.83,21.83,0,0,0,59.79,52.2a.86.86,0,0,1-.48-.77V48.57a.86.86,0,0,1,.48-.77A21.91,21.91,0,0,0,71.74,26a21.36,21.36,0,0,0-1.5-6h3.91a2,2,0,0,0,2-2V14.1A2,2,0,0,0,74.15,12.11Zm-7.78,14.4A16.49,16.49,0,0,1,55.62,43.72a2.67,2.67,0,0,0-1.72,2.52V53.8a2.69,2.69,0,0,0,1.81,2.51A16.52,16.52,0,0,1,66.46,71.75,16.3,16.3,0,0,1,64.25,80H61.71a14.37,14.37,0,1,0-23.42,0H35.78a16.07,16.07,0,0,1-2.15-6.51A16.49,16.49,0,0,1,44.38,56.28a2.67,2.67,0,0,0,1.72-2.52V46.2a2.69,2.69,0,0,0-1.81-2.51A16.52,16.52,0,0,1,33.54,28.25,16.3,16.3,0,0,1,35.75,20H64.22A16.07,16.07,0,0,1,66.37,26.51Z"/><path d="M48.52,50.33A1.48,1.48,0,1,0,47,48.85,1.48,1.48,0,0,0,48.52,50.33Z"/><path d="M51.85,53a1.48,1.48,0,1,0-1.48-1.48A1.48,1.48,0,0,0,51.85,53Z"/><circle cx="49.46" cy="55.39" r="1.48"/><text x="0" y="115" fill="#000000" font-size="5px" font-weight="bold" font-family="'Helvetica Neue', Helvetica, Arial-Unicode, Arial, Sans-serif">Created by Kholila wale</text><text x="0" y="120" fill="#000000" font-size="5px" font-weight="bold" font-family="'Helvetica Neue', Helvetica, Arial-Unicode, Arial, Sans-serif">from the Noun Project</text></svg>